<svg version="1.1" baseProfile="full" xmlns="http://www.w3.org/2000/svg" viewBox="39.209 41.571 427.437 270.689" width="427.437" height="273.689">
  <path d="M 287.055 301.608 L 374.805 264.36 C 374.805 264.36 375.731 265.917 372.496 267.755 C 365.303 271.842 291.845 306.849 285.046 307.19 C 278.77 307.506 114.943 266.484 113.434 265.908 C 110.802 264.905 127.036 259.7 127.036 259.7 L 287.055 301.608 Z" opacity="0.1" style=""></path>
  <path d="M 369.189 235.223 C 369.189 235.223 359.53 247.013 367.203 264.849 L 290.049 298.31 L 282.645 299.869 L 279.235 284.951 L 281.55 266.126 L 281.55 255.825 Z" fill="#d5d6db" style=""></path>
  <path d="M 125.555 227.598 L 232.339 208.134 L 373.839 230.675 C 373.839 230.675 377.714 232.24 375.442 234.653 C 373.204 237.028 288.599 261.546 286.014 262.295 L 285.952 262.316 L 285.935 262.313 C 275.686 283.021 285.221 298.015 285.408 298.305 L 285.428 298.31 L 373.839 260.586 C 373.839 260.586 378.78 261.651 375.583 265.274 C 372.386 268.898 287.133 301.932 287.133 301.932 L 127.254 264.039 L 127.056 263.996 C 115.546 246.519 125.538 227.598 125.538 227.598 L 264.413 257.654 Z" style="fill: rgb(66, 65, 82);"></path>
  <path d="M 125.538 227.598 C 125.538 227.598 115.546 246.519 127.056 263.996 L 285.411 298.31 C 285.411 298.31 275.586 283.224 285.935 262.312 L 235.858 251.472 Z" opacity="0.1" style=""></path>
  <path d="M 130.269 234.157 C 130.269 234.157 124.566 247.997 130.269 256.963" opacity="0.1" style=""></path>
  <path d="M 285.428 298.31 L 373.839 260.586 C 373.839 260.586 378.78 261.651 375.583 265.274 C 372.386 268.898 287.133 301.932 287.133 301.932 L 127.072 263.996 Z" opacity="0.1" style=""></path>
  <path d="M 278.183 266.126 C 278.183 266.126 269.657 276.357 278.183 291.702" opacity="0.1" style=""></path>
  <rect x="260.005" y="281.834" width="40.312" height="0.426" transform="matrix(0.9486, -0.316477, 0.316477, 0.9486, -54.615649, 93.653112)" opacity="0.1" style=""></rect>
  <rect x="259.444" y="282.902" width="49.117" height="0.426" transform="matrix(0.934702, -0.355433, 0.355433, 0.934702, -61.840758, 109.931989)" opacity="0.1" style=""></rect>
  <rect x="259.166" y="284.924" width="56.931" height="0.426" transform="matrix(0.925474, -0.37881, 0.37881, 0.925474, -66.320753, 120.669492)" opacity="0.1" style=""></rect>
  <rect x="320.092" y="376.18" width="80.985" height="0.561" transform="matrix(0.911332, -0.411673, 0.411673, 0.911332, -164.490322, 78.700361)" opacity="0.1" style=""></rect>
  <rect x="259.384" y="286.638" width="71.675" height="0.426" transform="matrix(0.916293, -0.400509, 0.400509, 0.916293, -69.922652, 132.724133)" opacity="0.1" style=""></rect>
  <rect x="259.862" y="286.904" width="85.773" height="0.426" transform="matrix(0.918032, -0.396507, 0.396507, 0.918032, -68.776015, 134.049802)" opacity="0.1" style=""></rect>
  <polygon points="165.228 229.682 240.249 213.911 293.847 222.648 224.777 242.47 164.931 229.682" opacity="0.45" style="fill: rgb(255, 255, 255);"></polygon>
  <g transform="matrix(0.398183, -0.15215, 0.316452, 0.132516, -79.74349, 250.891779)" style="">
    <g transform="matrix(1, 0, 0, 1, -43.951584, 204.509323)">
      <path d="M 504.93 151.273 L 538.733 199.57 L 524.6 201.025 L 506.698 175.561 L 490.881 197.907 L 456.321 204.647 L 504.93 151.273 Z" style="fill: rgb(235, 235, 238);" transform="matrix(0, -1, 1, 0, 324.516006, 667.16301)"></path>
      <path d="M 612.096 117.052 L 599.927 158.979 L 574.491 162.091 L 589.705 140.016 L 536.922 171.187 L 510.258 178.748 L 612.096 117.052 Z" style="fill: rgb(235, 235, 238);" transform="matrix(0, 1.242464, -0.804852, 1.447524, 680.21462, -763.431232)"></path>
    </g>
  </g>
  <g transform="matrix(0.398183, -0.15215, 0.316452, 0.132516, 39.25579, 329.119988)" style="">
    <g transform="matrix(1, 0, 0, 1, -43.951584, 204.509323)">
      <path d="M 593.079 -43.492 C 604.713 -41.018 592.596 25.704 592.596 25.704 L 560.693 52.148 C 560.693 52.148 571.56 -11.103 560.433 -13.704 C 556.5 -14.623 518.288 -4.501 518.288 -4.501 L 545.282 -22.452 L 553.719 -37.258 C 553.719 -37.258 587.017 -44.781 593.079 -43.492 Z" style="fill: rgb(143, 163, 255);" transform="matrix(0, -1.242464, 0.804852, -1.447519, 504.163274, 737.115028)"></path>
    </g>
  </g>
  <g transform="matrix(0.398183, -0.15215, 0.316452, 0.132516, 72.901709, 361.788322)" style="">
    <path d="M 530.62 94.462 L 495.416 126.196 L 468.288 132.864 L 495.306 114.781 L 503.84 99.888 L 530.62 94.462 Z" style="fill: rgb(255, 255, 255); fill-opacity: 0.16;" transform="matrix(0, -1.242465, 0.804852, -1.44752, 407.97214, 898.746562)"></path>
  </g>
  <path d="M 64.039 93.33 L 39.209 93.33 L 39.209 41.933 L 66.717 41.933 C 67.912 41.933 69.028 42.091 70.064 42.404 C 71.11 42.72 72.095 43.209 72.979 43.852 C 73.467 44.206 73.929 44.593 74.363 45.012 C 75.465 46.078 76.356 47.333 77.033 48.774 C 77.93 50.683 78.399 52.669 78.441 54.731 C 78.443 54.832 78.444 54.935 78.444 55.036 C 78.444 57.497 77.817 59.837 76.562 62.058 C 75.308 64.278 73.473 65.918 71.06 66.98 C 71.445 67.093 71.826 67.221 72.201 67.363 C 74.495 68.233 76.37 69.58 77.827 71.403 C 77.901 71.496 77.974 71.591 78.046 71.685 C 78.689 72.537 79.216 73.471 79.612 74.461 C 80.281 76.128 80.616 78.001 80.616 80.083 C 80.616 82.222 80.208 84.104 79.391 85.729 C 79.103 86.303 78.762 86.848 78.372 87.358 C 76.928 89.243 75.002 90.691 72.592 91.701 C 72.504 91.738 72.416 91.774 72.327 91.81 C 71.531 92.128 70.715 92.395 69.885 92.611 C 68.045 93.09 66.096 93.33 64.039 93.33 Z M 64.545 71.323 L 49.199 71.323 L 49.199 84.86 L 64.039 84.86 C 64.353 84.861 64.666 84.839 64.977 84.797 C 65.812 84.682 66.614 84.396 67.332 83.955 C 68.211 83.42 68.926 82.723 69.481 81.866 C 69.552 81.755 69.62 81.644 69.685 81.53 C 70.135 80.747 70.416 79.879 70.512 78.982 C 70.54 78.722 70.554 78.461 70.554 78.2 C 70.554 77.921 70.541 77.642 70.515 77.364 C 70.442 76.572 70.261 75.834 69.972 75.149 C 69.906 74.994 69.834 74.84 69.757 74.69 C 69.628 74.435 69.484 74.189 69.325 73.952 C 68.86 73.256 68.292 72.681 67.622 72.228 C 66.779 71.659 65.817 71.358 64.737 71.326 C 64.674 71.324 64.609 71.323 64.545 71.323 Z M 62.953 50.475 L 49.199 50.475 L 49.199 63.433 L 62.519 63.433 C 62.824 63.434 63.13 63.413 63.432 63.37 C 64.182 63.266 64.905 63.017 65.559 62.637 C 66.266 62.228 66.88 61.675 67.361 61.015 C 67.508 60.815 67.644 60.608 67.767 60.393 C 68.322 59.428 68.599 58.27 68.599 56.918 C 68.599 56.679 68.591 56.441 68.572 56.203 C 68.499 55.251 68.277 54.398 67.905 53.645 C 67.883 53.602 67.862 53.558 67.839 53.516 C 67.547 52.96 67.2 52.478 66.797 52.066 C 66.501 51.763 66.171 51.497 65.812 51.272 C 65.194 50.883 64.5 50.63 63.776 50.532 C 63.503 50.494 63.228 50.475 62.953 50.475 Z" id="0" vector-effect="non-scaling-stroke" style="fill: rgb(65, 64, 75); stroke: rgb(65, 64, 75);"></path>
  <path d="M 103.296 91.52 C 103.791 91.754 104.294 91.968 104.805 92.164 C 107.47 93.182 110.382 93.692 113.54 93.692 C 113.62 93.692 113.701 93.692 113.781 93.691 C 117.307 93.66 120.569 92.961 123.565 91.592 C 125.673 90.63 127.585 89.423 129.304 87.97 C 130.089 87.306 130.832 86.594 131.528 85.838 C 131.633 85.723 131.737 85.608 131.84 85.492 C 133.935 83.14 135.581 80.48 136.776 77.513 C 136.868 77.285 136.957 77.057 137.042 76.826 C 138.12 73.924 138.659 70.907 138.659 67.776 C 138.659 67.585 138.656 67.393 138.652 67.201 C 138.586 64.122 137.985 61.129 136.849 58.221 C 136.718 57.887 136.581 57.554 136.438 57.225 C 135.269 54.528 133.717 52.061 131.782 49.824 C 130.051 47.824 128.037 46.146 125.739 44.79 C 125.149 44.441 124.544 44.116 123.927 43.816 C 123.007 43.367 122.055 42.984 121.08 42.671 C 118.799 41.938 116.358 41.571 113.757 41.571 C 113.409 41.571 113.06 41.578 112.712 41.591 C 110.802 41.663 108.975 41.934 107.233 42.405 C 106.007 42.736 104.811 43.172 103.658 43.707 C 103.498 43.782 103.338 43.858 103.178 43.936 C 101.402 44.804 99.767 45.848 98.274 47.067 C 97.358 47.816 96.496 48.628 95.696 49.498 C 94.008 51.33 92.594 53.354 91.452 55.569 C 91.073 56.305 90.725 57.057 90.411 57.823 C 89.412 60.254 88.803 62.782 88.585 65.406 C 88.523 66.146 88.493 66.889 88.493 67.632 C 88.492 68.959 88.593 70.283 88.793 71.594 C 88.968 72.747 89.223 73.889 89.553 75.02 C 89.772 75.765 90.022 76.5 90.303 77.223 C 90.529 77.808 90.775 78.385 91.04 78.954 C 92.17 81.383 93.625 83.604 95.406 85.62 C 97.138 87.581 99.141 89.22 101.415 90.535 C 102.028 90.889 102.656 91.218 103.296 91.52 Z M 98.627 67.632 C 98.627 68.388 98.666 69.143 98.747 69.895 C 98.899 71.316 99.198 72.716 99.641 74.074 C 99.993 75.156 100.428 76.176 100.944 77.133 C 101.414 78.006 101.959 78.835 102.573 79.612 C 103.008 80.162 103.482 80.68 103.994 81.16 C 104.707 81.826 105.486 82.416 106.332 82.926 C 106.641 83.112 106.956 83.286 107.278 83.449 C 108.949 84.295 110.826 84.761 112.907 84.846 C 113.142 84.855 113.377 84.86 113.612 84.86 C 116.025 84.86 118.172 84.366 120.055 83.376 C 120.519 83.132 120.971 82.864 121.408 82.571 C 122.64 81.743 123.714 80.743 124.627 79.569 C 124.672 79.511 124.716 79.454 124.76 79.395 C 125.604 78.275 126.315 77.061 126.88 75.778 C 127.124 75.225 127.343 74.656 127.537 74.072 C 127.565 73.989 127.592 73.905 127.619 73.821 C 127.801 73.25 127.959 72.671 128.092 72.087 C 128.429 70.608 128.596 69.124 128.596 67.632 C 128.596 66.953 128.563 66.275 128.497 65.6 C 128.349 64.111 128.03 62.643 127.547 61.225 C 127.375 60.718 127.181 60.219 126.968 59.727 C 126.334 58.271 125.538 56.936 124.579 55.724 C 124.144 55.173 123.669 54.656 123.157 54.176 C 122.445 53.509 121.665 52.92 120.819 52.41 C 120.511 52.224 120.195 52.05 119.874 51.887 C 119.173 51.533 118.441 51.245 117.687 51.027 C 116.468 50.674 115.166 50.49 113.782 50.476 C 113.726 50.475 113.668 50.475 113.612 50.475 C 111.306 50.475 109.266 50.91 107.49 51.778 C 107.37 51.836 107.251 51.896 107.133 51.959 C 106.645 52.219 106.172 52.504 105.716 52.816 C 104.474 53.666 103.376 54.708 102.464 55.905 C 101.601 57.034 100.876 58.262 100.304 59.562 C 100.041 60.158 99.808 60.773 99.605 61.406 C 99.311 62.318 99.083 63.248 98.92 64.191 C 98.724 65.327 98.627 66.478 98.627 67.632 Z" id="1" vector-effect="non-scaling-stroke" style="fill: rgb(65, 64, 75); paint-order: fill; stroke: rgb(65, 64, 75); fill-rule: evenodd;"></path>
  <path d="M 159.747 91.52 C 160.241 91.754 160.744 91.968 161.255 92.164 C 163.921 93.182 166.832 93.692 169.99 93.692 C 170.07 93.692 170.151 93.692 170.231 93.691 C 173.758 93.66 177.019 92.961 180.016 91.592 C 182.123 90.63 184.035 89.423 185.755 87.97 C 186.539 87.306 187.282 86.594 187.978 85.838 C 188.083 85.723 188.188 85.608 188.29 85.492 C 190.385 83.14 192.031 80.48 193.227 77.513 C 193.319 77.285 193.407 77.057 193.492 76.826 C 194.57 73.924 195.109 70.907 195.109 67.776 C 195.109 67.585 195.107 67.393 195.102 67.201 C 195.036 64.122 194.435 61.129 193.299 58.221 C 193.168 57.887 193.031 57.554 192.889 57.225 C 191.719 54.528 190.167 52.061 188.232 49.824 C 186.501 47.824 184.487 46.146 182.189 44.79 C 181.599 44.441 180.994 44.116 180.378 43.816 C 179.457 43.367 178.506 42.984 177.53 42.671 C 175.249 41.938 172.808 41.571 170.207 41.571 C 169.859 41.571 169.51 41.578 169.162 41.591 C 167.252 41.663 165.426 41.934 163.683 42.405 C 162.457 42.736 161.261 43.172 160.109 43.707 C 159.948 43.782 159.788 43.858 159.629 43.936 C 157.852 44.804 156.218 45.848 154.724 47.067 C 153.809 47.816 152.946 48.628 152.146 49.498 C 150.458 51.33 149.044 53.354 147.902 55.569 C 147.523 56.305 147.175 57.057 146.861 57.823 C 145.862 60.254 145.254 62.782 145.035 65.406 C 144.973 66.146 144.943 66.889 144.943 67.632 C 144.942 68.959 145.043 70.283 145.243 71.594 C 145.419 72.747 145.673 73.889 146.004 75.02 C 146.222 75.765 146.472 76.5 146.753 77.223 C 146.979 77.808 147.225 78.385 147.49 78.954 C 148.62 81.383 150.075 83.604 151.856 85.62 C 153.588 87.581 155.591 89.22 157.865 90.535 C 158.478 90.889 159.106 91.218 159.747 91.52 Z M 155.077 67.632 C 155.077 68.388 155.117 69.143 155.197 69.895 C 155.349 71.316 155.648 72.716 156.091 74.074 C 156.443 75.156 156.878 76.176 157.394 77.133 C 157.864 78.006 158.409 78.835 159.023 79.612 C 159.458 80.162 159.933 80.68 160.444 81.16 C 161.157 81.826 161.936 82.416 162.783 82.926 C 163.091 83.112 163.407 83.286 163.728 83.449 C 165.399 84.295 167.276 84.761 169.357 84.846 C 169.592 84.855 169.827 84.86 170.062 84.86 C 172.475 84.86 174.623 84.366 176.505 83.376 C 176.969 83.132 177.421 82.864 177.858 82.571 C 179.09 81.743 180.164 80.743 181.077 79.569 C 181.122 79.511 181.166 79.454 181.21 79.395 C 182.054 78.275 182.765 77.061 183.33 75.778 C 183.574 75.225 183.794 74.656 183.988 74.072 C 184.015 73.989 184.043 73.905 184.069 73.821 C 184.251 73.25 184.409 72.671 184.542 72.087 C 184.879 70.608 185.047 69.124 185.047 67.632 C 185.047 66.953 185.013 66.275 184.947 65.6 C 184.799 64.111 184.481 62.643 183.997 61.225 C 183.825 60.718 183.631 60.219 183.418 59.727 C 182.784 58.271 181.988 56.936 181.029 55.724 C 180.594 55.173 180.119 54.656 179.607 54.176 C 178.895 53.509 178.115 52.92 177.269 52.41 C 176.961 52.224 176.645 52.05 176.324 51.887 C 175.623 51.533 174.891 51.245 174.137 51.027 C 172.918 50.674 171.616 50.49 170.232 50.476 C 170.176 50.475 170.119 50.475 170.062 50.475 C 167.756 50.475 165.716 50.91 163.94 51.778 C 163.82 51.836 163.701 51.896 163.583 51.959 C 163.095 52.219 162.623 52.504 162.167 52.816 C 160.924 53.666 159.826 54.708 158.914 55.905 C 158.051 57.034 157.326 58.262 156.754 59.562 C 156.491 60.158 156.258 60.773 156.055 61.406 C 155.762 62.318 155.533 63.248 155.37 64.191 C 155.174 65.327 155.077 66.478 155.077 67.632 Z" id="2" vector-effect="non-scaling-stroke" style="fill: rgb(65, 64, 75); paint-order: fill; stroke: rgb(65, 64, 75); fill-rule: evenodd;"></path>
  <path d="M 215.219 93.33 L 205.23 93.33 L 205.23 42.006 L 215.219 42.006 L 215.219 66.401 L 236.791 41.933 L 247.795 41.933 L 228.105 64.736 L 249.025 93.33 L 237.733 93.33 L 221.735 71.179 L 215.219 77.983 L 215.219 93.33 Z" id="3" vector-effect="non-scaling-stroke" style="fill: rgb(65, 64, 75); paint-order: fill; stroke: rgb(65, 64, 75);"></path>
  <path d="M 308.009 93.33 L 298.019 93.33 L 298.019 59.596 L 284.844 84.715 L 279.271 84.715 L 266.096 59.596 L 266.096 93.33 L 256.106 93.33 L 256.106 41.933 L 266.82 41.933 L 282.021 71.179 L 297.368 41.933 L 308.009 41.933 L 308.009 93.33 Z" id="4" vector-effect="non-scaling-stroke" style="fill: rgb(65, 64, 75); paint-order: fill; stroke: rgb(65, 64, 75);"></path>
  <path d="M 316.176 93.33 L 335.142 41.933 L 345.276 41.933 L 364.17 93.33 L 353.89 93.33 L 349.113 80.517 L 331.16 80.517 L 326.455 93.33 L 316.176 93.33 Z M 332.825 73.495 L 347.303 73.495 L 340.209 52.285 L 332.825 73.495 Z" id="5" vector-effect="non-scaling-stroke" style="fill: rgb(65, 64, 75); stroke: rgb(65, 64, 75); paint-order: fill;"></path>
  <path d="M 432.84 93.33 L 422.85 93.33 L 422.85 42.006 L 432.84 42.006 L 432.84 66.401 L 454.412 41.933 L 465.415 41.933 L 445.725 64.736 L 466.646 93.33 L 455.353 93.33 L 439.355 71.179 L 432.84 77.983 L 432.84 93.33 Z" id="7" vector-effect="non-scaling-stroke" style="fill: rgb(65, 64, 75); paint-order: fill; stroke: rgb(65, 64, 75);"></path>
  <path d="M 379.193 44.244 C 379.193 44.244 398.544 44.25 401.147 44.25 C 405.073 44.25 410.485 46.453 410.485 52.285 C 410.485 75.489 410.34 79.938 410.34 90.796 C 410.34 94.416 392.87 81.69 392.87 81.69 C 392.87 81.69 375.304 94.415 375.304 90.796 C 375.304 81.557 375.298 46.664 375.298 46.664 C 375.298 44.228 376.978 44.244 379.193 44.244 Z" style="paint-order: fill; stroke-width: 6px; stroke-linecap: square; fill: rgb(143, 163, 255); stroke: rgb(98, 124, 237);"></path>
  <rect x="99.061" y="289.673" width="25.063" height="0.431" transform="matrix(0.940624, -0.339449, -0.412927, -0.914108, 367.892356, 551.509875)" opacity="0.1" style=""></rect>
</svg>
