<?xml version="1.0" encoding="utf-8"?>
<svg viewBox="0 0 440 380" xmlns="http://www.w3.org/2000/svg">
<defs>
            
        </defs><path d="M 161.92919921875 169.5366973876953 L 239.9785919189453 136.4063720703125 C 239.9785919189453 136.4063720703125 240.80226135253906 137.79124450683594 237.92486572265625 139.42608642578125 C 231.5270538330078 143.06124877929688 166.18966674804688 174.1982879638672 160.14230346679688 174.5016326904297 C 154.5601043701172 174.78268432617188 8.843820571899414 138.29554748535156 7.501636505126953 137.7832489013672 C 5.160599708557129 136.89114379882812 19.599964141845703 132.2615203857422 19.599964141845703 132.2615203857422 L 161.92919921875 169.5366973876953 Z " opacity="0.1" style="" stroke="none" stroke-width="0.8894521071067947" stroke-linecap="butt" stroke-linejoin="miter" fill="#000000" transform="matrix(1 0 0 1 98.0891 77.8982)" class=""/><path d="M 234.98345947265625 110.49042510986328 C 234.98345947265625 110.49042510986328 226.3922576904297 120.97705078125 233.21701049804688 136.84132385253906 L 164.5922393798828 166.603271484375 L 158.00672912597656 167.9899444580078 L 154.97369384765625 154.7210693359375 L 157.0327606201172 137.9771728515625 L 157.0327606201172 128.8148956298828 L 234.98345947265625 110.49042510986328 Z " fill="#DBD6D5" style="" stroke="none" stroke-width="0.8894521071067947" stroke-linecap="butt" stroke-linejoin="miter" transform="matrix(1 0 0 1 98.0885 77.8982)" class="" fill-opacity="1"/><path d="M 18.282686233520508 103.70833587646484 L 113.26195526123047 86.39604187011719 L 239.1194305419922 106.44517517089844 C 239.1194305419922 106.44517517089844 242.56605529785156 107.83716583251953 240.54518127441406 109.9834213256836 C 238.5546112060547 112.09586334228516 163.30252075195312 133.90347290039062 161.00331115722656 134.5696563720703 L 160.9481201171875 134.58831787109375 L 160.93301391601562 134.58567810058594 C 151.8170166015625 153.0044403076172 160.29794311523438 166.34088134765625 160.4642791748047 166.59884643554688 L 160.4820556640625 166.603271484375 L 239.1194305419922 133.04957580566406 C 239.1194305419922 133.04957580566406 243.5142059326172 133.99684143066406 240.67062377929688 137.21934509277344 C 237.82701110839844 140.4427032470703 161.9985809326172 169.8248748779297 161.9985809326172 169.8248748779297 L 19.793867111206055 136.12086486816406 L 19.617753982543945 136.08262634277344 C 9.380162239074707 120.53766632080078 18.267566680908203 103.70833587646484 18.267566680908203 103.70833587646484 L 141.7902069091797 130.4417266845703 L 18.282686233520508 103.70833587646484 Z " style="" fill="#52515F" stroke="none" stroke-width="0.8894521071067947" stroke-linecap="butt" stroke-linejoin="miter" class="" fill-opacity="1" transform="matrix(1 0 0 1 98.0885 77.8982)"/><path d="M 18.26756477355957 103.70832824707031 C 18.26756477355957 103.70832824707031 9.380158424377441 120.53766632080078 19.617752075195312 136.08262634277344 L 160.46693420410156 166.603271484375 C 160.46693420410156 166.603271484375 151.7280731201172 153.1850128173828 160.93301391601562 134.58477783203125 L 116.39193725585938 124.94312286376953 L 18.26756477355957 103.70832824707031 Z " opacity="0.1" style="" stroke="none" stroke-width="0.8894521071067947" stroke-linecap="butt" stroke-linejoin="miter" transform="matrix(1 0 0 1 98.0891 77.8982)" class=""/><path d="M 16.970123291015625 79.50137329101562 C 16.970123291015625 79.50137329101562 13.154468536376953 88.1278076171875 16.946290969848633 94.41939544677734 " opacity="0.1" style="" stroke="none" stroke-width="0.6441009354446107" stroke-linecap="butt" stroke-linejoin="miter" transform="matrix(1 0 0 1 104.174 112.09)" class=""/><path d="M 160.4820556640625 166.603271484375 L 239.11941528320312 133.04957580566406 C 239.11941528320312 133.04957580566406 243.51419067382812 133.99684143066406 240.67062377929688 137.21934509277344 C 237.82701110839844 140.4427032470703 161.99856567382812 169.8248748779297 161.99856567382812 169.8248748779297 L 19.631986618041992 136.08262634277344 L 160.4820556640625 166.603271484375 Z " opacity="0.1" style="" stroke="none" stroke-width="0.8894521071067947" stroke-linecap="butt" stroke-linejoin="miter" transform="matrix(1 0 0 1 98.0891 77.8982)" class=""/><path d="M 152.07852172851562 137.55288696289062 C 152.07852172851562 137.55288696289062 144.67294311523438 148.70303344726562 152.2564239501953 162.35171508789062 " opacity="0.1" style="" stroke="none" stroke-width="0.8894521071067947" stroke-linecap="butt" stroke-linejoin="miter" transform="matrix(1 0 0 1 98.0891 77.8982)" class=""/><rect x="231.26192027549442" y="250.67776403885966" width="35.85558173937321" height="0.3789064750191752" transform="matrix(0.9486 -0.316477 0.316477 0.9486 -43.8857 62.4687)" opacity="0.1" style="" stroke="none" stroke-width="0.8894521071067947" stroke-linejoin="miter" fill="#000000" class=""/><rect x="230.76322545791774" y="251.62801224347385" width="43.68725946569025" height="0.37890694733766417" transform="matrix(0.934702 -0.355433 0.355433 0.934702 -50.3125 76.9483)" opacity="0.1" style="" stroke="none" stroke-width="0.8894521071067947" stroke-linejoin="miter" fill="#000000" class=""/><rect x="230.51544628418628" y="253.4259239910925" width="50.63733233682277" height="0.3789061069625775" transform="matrix(0.925474 -0.37881 0.37881 0.925474 -54.2973 86.4989)" opacity="0.1" style="" stroke="none" stroke-width="0.8894521071067947" stroke-linejoin="miter" fill="#000000" class=""/><rect x="284.70680438064045" y="334.59444682125553" width="72.03235492535323" height="0.49898315877166366" transform="matrix(0.911332 -0.411673 0.411673 0.911332 -141.617 49.1686)" opacity="0.1" style="" stroke="none" stroke-width="0.8894521071067947" stroke-linejoin="miter" fill="#000000" class=""/><rect x="230.70973453364576" y="254.95087163146195" width="63.75150442085502" height="0.3789067440988383" transform="matrix(0.916293 -0.400509 0.400509 0.916293 -57.5013 97.2216)" opacity="0.1" style="" stroke="none" stroke-width="0.8894521071067947" stroke-linejoin="miter" fill="#000000" class=""/><rect x="231.1350186361945" y="255.1876049087544" width="76.29104660736203" height="0.37890695037758065" transform="matrix(0.918032 -0.396507 0.396507 0.918032 -56.4809 98.4006)" opacity="0.1" style="" stroke="none" stroke-width="0.8894521071067947" stroke-linejoin="miter" fill="#000000" class=""/><g transform="matrix(0.386256 -0.922391 0.922391 0.386256 39.6111 271.911)" style="" class="">
    <g transform="matrix(1 0 0 1 -11.4988 50.3455)" class="">
      <path d="M 619.6261596679688 329.5048828125 C 621.5799560546875 334.0906677246094 614.229248046875 349.7820129394531 614.229248046875 349.7820129394531 L 606.3228149414062 347.0208435058594 C 606.3228149414062 347.0208435058594 613.1769409179688 331.94049072265625 611.3263549804688 327.4852294921875 C 610.6721801757812 325.9105529785156 602.8554077148438 316.23809814453125 602.8554077148438 316.23809814453125 L 609.2058715820312 319.8810119628906 L 611.8960571289062 318.3037414550781 C 611.8960571289062 318.3037414550781 618.6080932617188 327.1155090332031 619.6261596679688 329.5048828125 Z " style="" transform="matrix(-0.873984 -0.485954 0.485954 -0.873984 504.163 737.115)" fill="#7482C5" stroke="none" stroke-width="0.8894521071067947" stroke-linecap="butt" stroke-linejoin="miter" class="" fill-opacity="1"/>
    </g>
  </g><g transform="matrix(0.386256 -0.922391 0.922391 0.386256 69.5382 300.969)" style="">
    <path d="M 602.8659057617188 505.2945251464844 L 593.9454345703125 503.00201416015625 L 588.435791015625 495.9822082519531 L 594.8008422851562 499.5941162109375 L 597.515625 498.02325439453125 L 602.8659057617188 505.2945251464844 Z " style="" transform="matrix(-0.873984 -0.485954 0.485954 -0.873984 407.972 898.747)" fill="rgb(255, 255, 255)" fill-opacity="0.16" stroke="none" stroke-width="0.8894521071067947" stroke-linecap="butt" stroke-linejoin="miter" class=""/>
  </g><rect x="-88.3722989198851" y="-290.7940996235071" width="22.359020595113247" height="0.43269877959459474" transform="matrix(0.940624 -0.339449 -0.411673 -0.911332 271.26 -87.2993)" opacity="0.1" style="" stroke="none" stroke-width="0.8894521071067947" stroke-linejoin="miter" fill="#000000" class=""/><path d="M -93.53289794921875 0.04512149095535278 L -0.3473135828971863 -18.984098434448242 L 84.04471588134766 -5.5144572257995605 L -1.4914216995239258 20.316747665405273 L -93.53289794921875 0.04512149095535278 Z " fill="#00FF5C" stroke="none" fill-opacity="0" stroke-width="0.4183672343721795" transform="matrix(1 0 0 1 238.246 187.4)" class=""/><g transform="matrix(1 0 0 1 196.642 148.769)" fill="#FFFFFF" fill-opacity="0.84" class=""><path d="M 27.639469146728516 35.42927551269531 L 13.157819747924805 42.5601921081543 L 44.30436706542969 38.55765914916992 L 56.31339645385742 40.8120231628418 L 5.4376420974731445 46.70449447631836 L -4.521368980407715 44.58548355102539 L 16.631744384765625 33.362876892089844 L 27.639469146728516 35.42927551269531 Z " opacity="1" fill="#FFFFFF" fill-opacity=".9" stroke="none" stroke-opacity="1" stroke-width="0.945569013952933" transform="matrix(1 0 0 1 0.00000942882 0.00000597213)" class=""/><path d="M 53.44755935668945 36.27510452270508 L 64.90518188476562 29.859529495239258 L 36.80671691894531 33.25138473510742 L 25.96364974975586 31.281147003173828 L 69.59124755859375 26.865209579467773 L 78.83856201171875 28.37779426574707 L 65.2983627319336 38.42845153808594 L 53.44755935668945 36.27510452270508 Z " opacity="1" fill="#FFFFFF" fill-opacity=".9" stroke="none" stroke-opacity="1" stroke-width="0.945569013952933" transform="matrix(1 0 0 1 0.00000942882 0.00000597213)" class=""/></g><g transform="matrix(1 0 0 1 29.9807 56.5417)" class=""><path d="M 76.06234741210938 12.66507625579834 C 81.06765747070312 12.66507625579834 84.71283721923828 13.636604309082031 86.99787902832031 15.57966136932373 C 89.28290557861328 17.522720336914062 90.42542266845703 20.50725555419922 90.42542266845703 24.53327178955078 C 90.42542266845703 28.559289932250977 89.25182342529297 31.504962921142578 86.90461730957031 33.37030029296875 C 84.5573959350586 35.235633850097656 80.97439575195312 36.168304443359375 76.1556167602539 36.168304443359375 L 76.1556167602539 36.168304443359375 L 71.81871795654297 36.168304443359375 L 71.81871795654297 45.26181411743164 L 64.54389953613281 45.26181411743164 L 64.54389953613281 12.66507625579834 L 76.06234741210938 12.66507625579834 Z M 76.7152099609375 29.87279510498047 C 79.14013671875 29.87279510498047 80.7878646850586 29.383146286010742 81.65835571289062 28.403844833374023 C 82.52883911132812 27.424543380737305 82.9640884399414 25.99445343017578 82.9640884399414 24.113571166992188 C 82.9640884399414 22.23269271850586 82.39671325683594 20.895870208740234 81.26197052001953 20.103103637695312 C 80.1272201538086 19.310333251953125 78.36293029785156 18.913949966430664 75.96907806396484 18.913949966430664 L 75.96907806396484 18.913949966430664 L 71.81871795654297 18.913949966430664 L 71.81871795654297 29.87279510498047 L 76.7152099609375 29.87279510498047 Z " opacity="1" fill="#424249" fill-opacity="1" stroke="none" stroke-opacity="1" stroke-width="1.8234221113850073" transform="matrix(1 0 0 1 8.93494e-7 0.00000168508)" class=""/><path d="M 127.36182403564453 45.26181411743164 L 119.62067413330078 45.26181411743164 L 116.5895004272461 38.22017288208008 L 102.9259262084961 38.22017288208008 L 99.89474487304688 45.26181411743164 L 92.15360260009766 45.26181411743164 L 106.23689270019531 12.66507625579834 L 113.27852630615234 12.66507625579834 L 127.36182403564453 45.26181411743164 Z M 113.83814239501953 31.831396102905273 L 109.78102111816406 22.36482048034668 L 105.67729187011719 31.831396102905273 L 113.83814239501953 31.831396102905273 Z " opacity="1" fill="#424249" fill-opacity="1" stroke="none" stroke-opacity="1" stroke-width="1.8234221113850073" transform="matrix(1 0 0 1 8.93494e-7 0.00000168508)" class=""/><path d="M 159.7747802734375 23.484024047851562 L 159.7747802734375 23.484024047851562 C 159.7747802734375 28.70696258544922 157.7073516845703 32.080108642578125 153.57252502441406 33.60346603393555 L 153.57252502441406 33.60346603393555 L 161.82664489746094 45.26181411743164 L 152.87301635742188 45.26181411743164 L 145.6448516845703 34.862571716308594 L 140.6084442138672 34.862571716308594 L 140.6084442138672 45.26181411743164 L 133.33364868164062 45.26181411743164 L 133.33364868164062 12.66507625579834 L 145.69146728515625 12.66507625579834 C 150.7589874267578 12.66507625579834 154.373046875 13.520021438598633 156.53375244140625 15.229912757873535 C 158.69442749023438 16.939802169799805 159.7747802734375 19.691171646118164 159.7747802734375 23.484024047851562 Z M 145.9246368408203 28.567062377929688 C 148.41177368164062 28.567062377929688 150.10610961914062 28.162906646728516 151.0076904296875 27.35459327697754 C 151.90927124023438 26.54627799987793 152.36004638671875 25.263864517211914 152.36004638671875 23.507339477539062 C 152.36004638671875 21.750816345214844 151.89370727539062 20.546117782592773 150.96107482910156 19.893251419067383 C 150.02838134765625 19.240385055541992 148.39620971679688 18.913949966430664 146.06454467773438 18.913949966430664 L 146.06454467773438 18.913949966430664 L 140.6084442138672 18.913949966430664 L 140.6084442138672 28.567062377929688 L 145.9246368408203 28.567062377929688 Z " opacity="1" fill="#424249" fill-opacity="1" stroke="none" stroke-opacity="1" stroke-width="1.8234221113850073" transform="matrix(1 0 0 1 8.93494e-7 0.00000168508)" class=""/><path d="M 200.39517211914062 45.26181411743164 L 192.654052734375 45.26181411743164 L 189.6228790283203 38.22017288208008 L 175.95928955078125 38.22017288208008 L 172.92811584472656 45.26181411743164 L 165.18698120117188 45.26181411743164 L 179.27024841308594 12.66507625579834 L 186.31190490722656 12.66507625579834 L 200.39517211914062 45.26181411743164 Z M 186.8715057373047 31.831396102905273 L 182.8144073486328 22.36482048034668 L 178.71066284179688 31.831396102905273 L 186.8715057373047 31.831396102905273 Z " opacity="1" fill="#424249" fill-opacity="1" stroke="none" stroke-opacity="1" stroke-width="1.8234221113850073" transform="matrix(1 0 0 1 8.93494e-7 0.00000168508)" class=""/><path d="M 217.8854522705078 12.66507625579834 C 223.6990966796875 12.66507625579834 228.16033935546875 14.087394714355469 231.2692413330078 16.932031631469727 C 234.37811279296875 19.77666664123535 235.9325714111328 23.73273277282715 235.9325714111328 28.800228118896484 C 235.9325714111328 33.86772155761719 234.41697692871094 37.87818908691406 231.3858184814453 40.83164596557617 C 228.35464477539062 43.785091400146484 223.7301788330078 45.26181411743164 217.51239013671875 45.26181411743164 L 217.51239013671875 45.26181411743164 L 206.36700439453125 45.26181411743164 L 206.36700439453125 12.66507625579834 L 217.8854522705078 12.66507625579834 Z M 218.2584991455078 38.82640838623047 C 221.5850372314453 38.82640838623047 224.14208984375 37.987003326416016 225.92970275878906 36.308204650878906 C 227.71731567382812 34.629398345947266 228.6111297607422 32.18891906738281 228.6111297607422 28.98676109313965 C 228.6111297607422 25.78460121154785 227.71731567382812 23.320804595947266 225.92970275878906 21.595369338989258 C 224.14208984375 19.86993408203125 221.3985137939453 19.007219314575195 217.69891357421875 19.007219314575195 L 217.69891357421875 19.007219314575195 L 213.64181518554688 19.007219314575195 L 213.64181518554688 38.82640838623047 L 218.2584991455078 38.82640838623047 Z " opacity="1" fill="#424249" fill-opacity="1" stroke="none" stroke-opacity="1" stroke-width="1.8234221113850073" transform="matrix(1 0 0 1 8.93494e-7 0.00000168508)" class=""/><path d="M 269.3714599609375 28.77691078186035 C 269.3714599609375 25.870098114013672 268.43878173828125 23.39075469970703 266.57342529296875 21.338886260986328 C 264.7081298828125 19.287017822265625 262.415283203125 18.261083602905273 259.69500732421875 18.261083602905273 C 256.9747619628906 18.261083602905273 254.68194580078125 19.287017822265625 252.81658935546875 21.338886260986328 C 250.9512481689453 23.39075469970703 250.0186004638672 25.870098114013672 250.0186004638672 28.77691078186035 C 250.0186004638672 31.68372344970703 250.9512481689453 34.155296325683594 252.81658935546875 36.191619873046875 C 254.68194580078125 38.22794723510742 256.9747619628906 39.24611282348633 259.69500732421875 39.24611282348633 C 262.415283203125 39.24611282348633 264.7081298828125 38.22794723510742 266.57342529296875 36.191619873046875 C 268.43878173828125 34.155296325683594 269.3714599609375 31.68372344970703 269.3714599609375 28.77691078186035 Z M 271.8430480957031 40.76169204711914 C 268.5475769042969 43.97939682006836 264.4905090332031 45.5882453918457 259.6717224121094 45.5882453918457 C 254.8529510498047 45.5882453918457 250.79580688476562 43.97939682006836 247.5004119873047 40.76169204711914 C 244.2049560546875 37.54399108886719 242.5572509765625 33.54128646850586 242.5572509765625 28.75359535217285 C 242.5572509765625 23.965900421142578 244.2049560546875 19.96320152282715 247.5004119873047 16.74549674987793 C 250.79580688476562 13.527793884277344 254.8529510498047 11.918941497802734 259.6717224121094 11.918941497802734 C 264.4905090332031 11.918941497802734 268.5475769042969 13.527793884277344 271.8430480957031 16.74549674987793 C 275.138427734375 19.96320152282715 276.7861633300781 23.965900421142578 276.7861633300781 28.75359535217285 C 276.7861633300781 33.54128646850586 275.138427734375 37.54399108886719 271.8430480957031 40.76169204711914 Z " opacity="1" fill="#424249" fill-opacity="1" stroke="none" stroke-opacity="1" stroke-width="1.8234221113850073" transform="matrix(1 0 0 1 8.93494e-7 0.00000168508)" class=""/><path d="M 300.1055908203125 38.82640838623047 L 300.1055908203125 38.82640838623047 C 303.6808166503906 38.82640838623047 306.6031799316406 37.411861419677734 308.8726806640625 34.58277130126953 L 308.8726806640625 34.58277130126953 L 313.5360107421875 39.386009216308594 C 309.8364562988281 43.55192184448242 305.4762268066406 45.634883880615234 300.4553527832031 45.634883880615234 C 295.4344482421875 45.634883880615234 291.2996520996094 44.049346923828125 288.0509033203125 40.87827682495117 C 284.80206298828125 37.707210540771484 283.17767333984375 33.704505920410156 283.17767333984375 28.870180130004883 C 283.17767333984375 24.035850524902344 284.83319091796875 20.00206184387207 288.1441345214844 16.768814086914062 C 291.4551086425781 13.535567283630371 295.5044250488281 11.918941497802734 300.2921447753906 11.918941497802734 L 300.2921447753906 11.918941497802734 C 305.639404296875 11.918941497802734 310.1162414550781 13.955265998840332 313.7225646972656 18.027915954589844 L 313.7225646972656 18.027915954589844 L 309.1991271972656 23.157588958740234 C 306.89849853515625 20.297407150268555 304.038330078125 18.86731719970703 300.6185607910156 18.86731719970703 L 300.6185607910156 18.86731719970703 C 297.88275146484375 18.86731719970703 295.5433349609375 19.76112174987793 293.6002197265625 21.548734664916992 C 291.65716552734375 23.336349487304688 290.6856384277344 25.74574089050293 290.6856384277344 28.77691078186035 C 290.6856384277344 31.80808448791504 291.6028137207031 34.24079132080078 293.4370422363281 36.075035095214844 C 295.2712707519531 37.90928268432617 297.4941101074219 38.82640838623047 300.1055908203125 38.82640838623047 Z " opacity="1" fill="#424249" fill-opacity="1" stroke="none" stroke-opacity="1" stroke-width="1.8234221113850073" transform="matrix(1 0 0 1 8.93494e-7 0.00000168508)" class=""/></g><g transform="matrix(1 0 0 1 30.5293 303.808)"><path d="M 71.51553344726562 4.01920747756958 L 74.02606201171875 11.19416618347168 L 76.25129699707031 4.01920747756958 L 77.76331329345703 4.01920747756958 L 79.98855590820312 11.19416618347168 L 82.49907684326172 4.01920747756958 L 84.3106460571289 4.01920747756958 L 80.83014678955078 13.989974021911621 L 79.16122436523438 13.989974021911621 L 77.06436157226562 7.157360076904297 L 76.95025634765625 7.157360076904297 L 74.85338592529297 13.989974021911621 L 73.1844711303711 13.989974021911621 L 69.70397186279297 4.01920747756958 L 71.51553344726562 4.01920747756958 Z " opacity="1" fill="#7B7A80" fill-opacity="1" stroke="none" stroke-opacity="1" stroke-width="1.823594430737184" transform="matrix(1 0 0 1 0 0)"/><path d="M 97.66535186767578 7.2572102546691895 L 97.66535186767578 7.2572102546691895 C 97.66535186767578 8.902363777160645 96.94738006591797 9.93890380859375 95.51144409179688 10.36683464050293 L 95.51144409179688 10.36683464050293 L 98.1218032836914 13.989974021911621 L 95.98216247558594 13.989974021911621 L 93.60001373291016 10.637856483459473 L 91.3890380859375 10.637856483459473 L 91.3890380859375 13.989974021911621 L 89.70585632324219 13.989974021911621 L 89.70585632324219 4.01920747756958 L 93.41458129882812 4.01920747756958 C 94.93610382080078 4.01920747756958 96.02494812011719 4.275965690612793 96.68110656738281 4.789481163024902 C 97.33726501464844 5.302997589111328 97.66535186767578 6.125574111938477 97.66535186767578 7.2572102546691895 Z M 93.48590850830078 9.111573219299316 C 94.43685150146484 9.111573219299316 95.08351135253906 8.9641752243042 95.42585754394531 8.669379234313965 C 95.7681884765625 8.37458324432373 95.93936920166016 7.901482582092285 95.93936920166016 7.250078201293945 C 95.93936920166016 6.5986738204956055 95.76344299316406 6.151724815368652 95.41158294677734 5.909230709075928 C 95.05973815917969 5.6667375564575195 94.43209838867188 5.545490741729736 93.52870178222656 5.545490741729736 L 93.52870178222656 5.545490741729736 L 91.3890380859375 5.545490741729736 L 91.3890380859375 9.111573219299316 L 93.48590850830078 9.111573219299316 Z " opacity="1" fill="#7B7A80" fill-opacity="1" stroke="none" stroke-opacity="1" stroke-width="1.823594430737184" transform="matrix(1 0 0 1 0 0)"/><path d="M 103.93067169189453 13.989974021911621 L 103.93067169189453 4.01920747756958 L 105.61387634277344 4.01920747756958 L 105.61387634277344 13.989974021911621 L 103.93067169189453 13.989974021911621 Z " opacity="1" fill="#7B7A80" fill-opacity="1" stroke="none" stroke-opacity="1" stroke-width="1.823594430737184" transform="matrix(1 0 0 1 0 0)"/><path d="M 119.0113754272461 5.559755325317383 L 115.9873275756836 5.559755325317383 L 115.9873275756836 13.989974021911621 L 114.30414581298828 13.989974021911621 L 114.30414581298828 5.559755325317383 L 111.28009796142578 5.559755325317383 L 111.28009796142578 4.01920747756958 L 119.0113754272461 4.01920747756958 L 119.0113754272461 5.559755325317383 Z " opacity="1" fill="#7B7A80" fill-opacity="1" stroke="none" stroke-opacity="1" stroke-width="1.823594430737184" transform="matrix(1 0 0 1 0 0)"/><path d="M 124.67759704589844 4.01920747756958 L 131.681396484375 4.01920747756958 L 131.681396484375 5.602548122406006 L 126.36079406738281 5.602548122406006 L 126.36079406738281 8.241449356079102 L 131.13934326171875 8.241449356079102 L 131.13934326171875 9.739204406738281 L 126.36079406738281 9.739204406738281 L 126.36079406738281 12.406634330749512 L 131.8525390625 12.406634330749512 L 131.8525390625 13.989974021911621 L 124.67759704589844 13.989974021911621 L 124.67759704589844 4.01920747756958 Z " opacity="1" fill="#7B7A80" fill-opacity="1" stroke="none" stroke-opacity="1" stroke-width="1.823594430737184" transform="matrix(1 0 0 1 0 0)"/><path d="" opacity="1" fill="#7B7A80" fill-opacity="1" stroke="none" stroke-opacity="1" stroke-width="1.823594430737184" transform="matrix(1 0 0 1 0 0)"/><path d="" opacity="1" fill="#7B7A80" fill-opacity="1" stroke="none" stroke-opacity="1" stroke-width="1.823594430737184" transform="matrix(1 0 0 1 0 0)"/><path d="M 156.76797485351562 4.01920747756958 C 158.55575561523438 4.01920747756958 159.92990112304688 4.454269886016846 160.8903350830078 5.3243937492370605 C 161.85081481933594 6.194518089294434 162.33103942871094 7.404608726501465 162.33103942871094 8.954666137695312 C 162.33103942871094 10.504722595214844 161.86508178710938 11.73145580291748 160.93313598632812 12.634862899780273 C 160.00119018554688 13.538269996643066 158.5747833251953 13.989974021911621 156.65383911132812 13.989974021911621 L 156.65383911132812 13.989974021911621 L 153.34451293945312 13.989974021911621 L 153.34451293945312 4.01920747756958 L 156.76797485351562 4.01920747756958 Z M 160.6335906982422 8.997458457946777 L 160.6335906982422 8.997458457946777 C 160.6335906982422 6.715165615081787 159.32601928710938 5.574019432067871 156.7108917236328 5.574019432067871 L 156.7108917236328 5.574019432067871 L 155.0277099609375 5.574019432067871 L 155.0277099609375 12.406634330749512 L 156.89633178710938 12.406634330749512 C 158.10406494140625 12.406634330749512 159.02886962890625 12.118969917297363 159.67074584960938 11.543642044067383 C 160.31265258789062 10.968314170837402 160.6335906982422 10.119585990905762 160.6335906982422 8.997458457946777 Z " opacity="1" fill="#7B7A80" fill-opacity="1" stroke="none" stroke-opacity="1" stroke-width="1.823594430737184" transform="matrix(1 0 0 1 0 0)"/><path d="M 168.33961486816406 4.01920747756958 L 175.34341430664062 4.01920747756958 L 175.34341430664062 5.602548122406006 L 170.02281188964844 5.602548122406006 L 170.02281188964844 8.241449356079102 L 174.80136108398438 8.241449356079102 L 174.80136108398438 9.739204406738281 L 170.02281188964844 9.739204406738281 L 170.02281188964844 12.406634330749512 L 175.51458740234375 12.406634330749512 L 175.51458740234375 13.989974021911621 L 168.33961486816406 13.989974021911621 L 168.33961486816406 4.01920747756958 Z " opacity="1" fill="#7B7A80" fill-opacity="1" stroke="none" stroke-opacity="1" stroke-width="1.823594430737184" transform="matrix(1 0 0 1 0 0)"/><path d="M 184.9323272705078 4.01920747756958 C 186.44435119628906 4.01920747756958 187.54745483398438 4.309248924255371 188.2416534423828 4.889331340789795 C 188.93585205078125 5.469414710998535 189.282958984375 6.363312244415283 189.282958984375 7.571025848388672 C 189.282958984375 8.778738975524902 188.92872619628906 9.663126945495605 188.22024536132812 10.224190711975098 C 187.51181030273438 10.78525447845459 186.4253387451172 11.065786361694336 184.96087646484375 11.065786361694336 L 184.96087646484375 11.065786361694336 L 183.19207763671875 11.065786361694336 L 183.19207763671875 13.989974021911621 L 181.50888061523438 13.989974021911621 L 181.50888061523438 4.01920747756958 L 184.9323272705078 4.01920747756958 Z M 185.1462860107422 9.539504051208496 C 186.07821655273438 9.539504051208496 186.71299743652344 9.361198425292969 187.05059814453125 9.00459098815918 C 187.38816833496094 8.647981643676758 187.5569610595703 8.124957084655762 187.5569610595703 7.4355149269104 C 187.5569610595703 6.746072292327881 187.34298706054688 6.258707523345947 186.91506958007812 5.9734206199646 C 186.4871368408203 5.68813419342041 185.81671142578125 5.545490741729736 184.90380859375 5.545490741729736 L 184.90380859375 5.545490741729736 L 183.19207763671875 5.545490741729736 L 183.19207763671875 9.539504051208496 L 185.1462860107422 9.539504051208496 Z " opacity="1" fill="#7B7A80" fill-opacity="1" stroke="none" stroke-opacity="1" stroke-width="1.823594430737184" transform="matrix(1 0 0 1 0 0)"/><path d="M 201.33958435058594 13.989974021911621 L 195.1060791015625 13.989974021911621 L 195.1060791015625 4.01920747756958 L 196.78927612304688 4.01920747756958 L 196.78927612304688 12.392369270324707 L 201.33958435058594 12.392369270324707 L 201.33958435058594 13.989974021911621 Z " opacity="1" fill="#7B7A80" fill-opacity="1" stroke="none" stroke-opacity="1" stroke-width="1.823594430737184" transform="matrix(1 0 0 1 0 0)" class=""/><path d="M 213.8455810546875 6.372822284698486 C 213.1656494140625 5.669114589691162 212.3311767578125 5.317261695861816 211.34219360351562 5.317261695861816 C 210.3531951904297 5.317261695861816 209.51873779296875 5.669114589691162 208.8387908935547 6.372822284698486 C 208.15887451171875 7.076528549194336 207.81890869140625 7.93001127243042 207.81890869140625 8.933270454406738 C 207.81890869140625 9.936527252197266 208.15887451171875 10.790009498596191 208.8387908935547 11.4937162399292 C 209.51873779296875 12.197423934936523 210.3531951904297 12.549277305603027 211.34219360351562 12.549277305603027 C 212.3311767578125 12.549277305603027 213.1656494140625 12.197423934936523 213.8455810546875 11.4937162399292 C 214.52549743652344 10.790009498596191 214.865478515625 9.936527252197266 214.865478515625 8.933270454406738 C 214.865478515625 7.93001127243042 214.52549743652344 7.076528549194336 213.8455810546875 6.372822284698486 Z M 215.07945251464844 12.613466262817383 C 214.07144165039062 13.597704887390137 212.82566833496094 14.089823722839355 211.34219360351562 14.089823722839355 C 209.85870361328125 14.089823722839355 208.61294555664062 13.597704887390137 207.6049346923828 12.613466262817383 C 206.59690856933594 11.629227638244629 206.0928955078125 10.402495384216309 206.0928955078125 8.933270454406738 C 206.0928955078125 7.464043617248535 206.59690856933594 6.237310886383057 207.6049346923828 5.2530717849731445 C 208.61294555664062 4.268833160400391 209.85870361328125 3.7767138481140137 211.34219360351562 3.7767138481140137 C 212.82566833496094 3.7767138481140137 214.07144165039062 4.268833160400391 215.07945251464844 5.2530717849731445 C 216.0874481201172 6.237310886383057 216.59144592285156 7.464043617248535 216.59144592285156 8.933270454406738 C 216.59144592285156 10.402495384216309 216.0874481201172 11.629227638244629 215.07945251464844 12.613466262817383 Z " opacity="1" fill="#7B7A80" fill-opacity="1" stroke="none" stroke-opacity="1" stroke-width="1.823594430737184" transform="matrix(1 0 0 1 0 0)"/><path d="M 226.15184020996094 10.053019523620605 L 226.15184020996094 13.989974021911621 L 224.4401397705078 13.989974021911621 L 224.4401397705078 10.053019523620605 L 220.73141479492188 4.01920747756958 L 222.57150268554688 4.01920747756958 L 225.2960205078125 8.55526351928711 L 228.02049255371094 4.01920747756958 L 229.860595703125 4.01920747756958 L 226.15184020996094 10.053019523620605 Z " opacity="1" fill="#7B7A80" fill-opacity="1" stroke="none" stroke-opacity="1" stroke-width="1.823594430737184" transform="matrix(1 0 0 1 0 0)"/><path d="" opacity="1" fill="#7B7A80" fill-opacity="1" stroke="none" stroke-opacity="1" stroke-width="1.823594430737184" transform="matrix(1 0 0 1 0 0)"/><path d="" opacity="1" fill="#7B7A80" fill-opacity="1" stroke="none" stroke-opacity="1" stroke-width="1.823594430737184" transform="matrix(1 0 0 1 0 0)"/><path d="M 250.46815490722656 4.01920747756958 L 257.4719543457031 4.01920747756958 L 257.4719543457031 5.602548122406006 L 252.1513671875 5.602548122406006 L 252.1513671875 8.241449356079102 L 256.9299011230469 8.241449356079102 L 256.9299011230469 9.739204406738281 L 252.1513671875 9.739204406738281 L 252.1513671875 12.406634330749512 L 257.6430969238281 12.406634330749512 L 257.6430969238281 13.989974021911621 L 250.46815490722656 13.989974021911621 L 250.46815490722656 4.01920747756958 Z " opacity="1" fill="#7B7A80" fill-opacity="1" stroke="none" stroke-opacity="1" stroke-width="1.823594430737184" transform="matrix(1 0 0 1 0 0)" class=""/><path d="M 271.1119079589844 11.465188026428223 L 271.1119079589844 4.01920747756958 L 272.7951354980469 4.01920747756958 L 272.7951354980469 13.989974021911621 L 270.9692687988281 13.989974021911621 L 265.32061767578125 6.715165615081787 L 265.32061767578125 13.989974021911621 L 263.6374206542969 13.989974021911621 L 263.6374206542969 4.01920747756958 L 265.32061767578125 4.01920747756958 L 271.1119079589844 11.465188026428223 Z " opacity="1" fill="#7B7A80" fill-opacity="1" stroke="none" stroke-opacity="1" stroke-width="1.823594430737184" transform="matrix(1 0 0 1 0 0)" class=""/><path d="M 282.8975524902344 5.53122615814209 L 279.73089599609375 5.53122615814209 L 279.73089599609375 4.01920747756958 L 284.58074951171875 4.01920747756958 L 284.58074951171875 10.595063209533691 C 284.58074951171875 11.755229949951172 284.28594970703125 12.625353813171387 283.69635009765625 13.205435752868652 C 283.10675048828125 13.78551959991455 282.3507385253906 14.075560569763184 281.4283447265625 14.075560569763184 L 281.4283447265625 14.075560569763184 C 280.2681884765625 14.075560569763184 279.2791748046875 13.666648864746094 278.4613342285156 12.848828315734863 L 278.4613342285156 12.848828315734863 L 279.41705322265625 11.522245407104492 C 280.0636901855469 12.140365600585938 280.6960754394531 12.449426651000977 281.314208984375 12.449426651000977 L 281.314208984375 12.449426651000977 C 281.7516784667969 12.449426651000977 282.1248779296875 12.302029609680176 282.4339599609375 12.007231712341309 C 282.7430419921875 11.712437629699707 282.8975524902344 11.270242691040039 282.8975524902344 10.68065071105957 L 282.8975524902344 10.68065071105957 L 282.8975524902344 5.53122615814209 Z " opacity="1" fill="#7B7A80" fill-opacity="1" stroke="none" stroke-opacity="1" stroke-width="1.823594430737184" transform="matrix(1 0 0 1 0 0)" class=""/><path d="M 298.213623046875 6.372822284698486 C 297.5336608886719 5.669114589691162 296.69921875 5.317261695861816 295.710205078125 5.317261695861816 C 294.72119140625 5.317261695861816 293.8867492675781 5.669114589691162 293.2068176269531 6.372822284698486 C 292.52691650390625 7.076528549194336 292.1869201660156 7.93001127243042 292.1869201660156 8.933270454406738 C 292.1869201660156 9.936527252197266 292.52691650390625 10.790009498596191 293.2068176269531 11.4937162399292 C 293.8867492675781 12.197423934936523 294.72119140625 12.549277305603027 295.710205078125 12.549277305603027 C 296.69921875 12.549277305603027 297.5336608886719 12.197423934936523 298.213623046875 11.4937162399292 C 298.8935241699219 10.790009498596191 299.2334899902344 9.936527252197266 299.2334899902344 8.933270454406738 C 299.2334899902344 7.93001127243042 298.8935241699219 7.076528549194336 298.213623046875 6.372822284698486 Z M 299.4474792480469 12.613466262817383 C 298.439453125 13.597704887390137 297.1937255859375 14.089823722839355 295.710205078125 14.089823722839355 C 294.22674560546875 14.089823722839355 292.9809265136719 13.597704887390137 291.9729919433594 12.613466262817383 C 290.9649353027344 11.629227638244629 290.4609069824219 10.402495384216309 290.4609069824219 8.933270454406738 C 290.4609069824219 7.464043617248535 290.9649353027344 6.237310886383057 291.9729919433594 5.2530717849731445 C 292.9809265136719 4.268833160400391 294.22674560546875 3.7767138481140137 295.710205078125 3.7767138481140137 C 297.1937255859375 3.7767138481140137 298.439453125 4.268833160400391 299.4474792480469 5.2530717849731445 C 300.4554748535156 6.237310886383057 300.95947265625 7.464043617248535 300.95947265625 8.933270454406738 C 300.95947265625 10.402495384216309 300.4554748535156 11.629227638244629 299.4474792480469 12.613466262817383 Z " opacity="1" fill="#7B7A80" fill-opacity="1" stroke="none" stroke-opacity="1" stroke-width="1.823594430737184" transform="matrix(1 0 0 1 0 0)" class=""/><path d="M 310.5198974609375 10.053019523620605 L 310.5198974609375 13.989974021911621 L 308.80816650390625 13.989974021911621 L 308.80816650390625 10.053019523620605 L 305.09942626953125 4.01920747756958 L 306.9395446777344 4.01920747756958 L 309.66400146484375 8.55526351928711 L 312.3885192871094 4.01920747756958 L 314.22857666015625 4.01920747756958 L 310.5198974609375 10.053019523620605 Z " opacity="1" fill="#7B7A80" fill-opacity="1" stroke="none" stroke-opacity="1" stroke-width="1.823594430737184" transform="matrix(1 0 0 1 0 0)" class=""/></g></svg>
