<?xml version="1.0" encoding="utf-8"?>
<svg viewBox="0 0 440 380" xmlns="http://www.w3.org/2000/svg">
  <defs>
    <filter x="-.7%" y="-1.2%" width="101.3%" height="102.4%" filterUnits="objectBoundingBox" id="d">
      <feOffset dy="1" in="SourceAlpha" result="shadowOffsetInner1"/>
      <feComposite in="shadowOffsetInner1" in2="SourceAlpha" operator="arithmetic" k2="-3" k3="1" result="shadowInnerInner1"/>
      <feColorMatrix values="0 0 0 0 0 0 0 0 0 0 0 0 0 0 0 0 0 0 0.18 0" in="shadowInnerInner1"/>
    </filter>
  </defs>
  <path d="M 243.472 226.407 L 312.111 197.271 C 312.111 197.271 312.835 198.489 310.304 199.926 C 304.678 203.123 247.219 230.506 241.901 230.773 C 236.993 231.02 108.846 198.933 107.666 198.481 C 105.608 197.697 118.306 193.626 118.306 193.626 L 243.472 226.407 Z" opacity="0.1" style="" stroke="none" stroke-width="2.394399021858131" stroke-linecap="butt" stroke-linejoin="miter" fill="#000000" class=""/>
  <path d="M 307.718 174.48 C 307.718 174.48 300.162 183.702 306.164 197.653 L 245.815 223.826 L 240.023 225.045 L 237.355 213.377 L 239.166 198.652 L 239.166 190.596 L 307.718 174.48 Z" fill="#DBD6D5" style="" stroke="none" stroke-width="2.394399021858131" stroke-linecap="butt" stroke-linejoin="miter" class="" fill-opacity="1"/>
  <path d="M 117.146 168.516 L 200.673 153.291 L 311.354 170.922 C 311.354 170.922 314.386 172.147 312.609 174.034 C 310.858 175.892 244.68 195.069 242.658 195.655 L 242.61 195.672 L 242.596 195.669 C 234.58 211.867 242.038 223.596 242.184 223.822 L 242.199 223.826 L 311.354 194.319 C 311.354 194.319 315.22 195.151 312.72 197.986 C 310.218 200.82 243.534 226.66 243.534 226.66 L 118.476 197.019 L 118.321 196.985 C 109.318 183.315 117.133 168.516 117.133 168.516 L 225.762 192.025 L 117.146 168.516 Z" style="" fill="#DD4B39" stroke="none" stroke-linecap="butt" stroke-linejoin="miter" class="" stroke-width="2.394399021858131" fill-opacity="1"/>
  <path d="M 117.133 168.516 C 117.133 168.516 109.318 183.315 118.321 196.985 L 242.186 223.826 C 242.186 223.826 234.502 212.027 242.596 195.669 L 203.426 187.189 L 117.133 168.516 Z" opacity="0.1" style="" stroke="none" stroke-width="2.394399021858131" stroke-linecap="butt" stroke-linejoin="miter" class=""/>
  <path d="M 121.343 177.296 C 121.343 177.296 117.988 184.883 121.323 190.416" opacity="0.1" style="" stroke="none" stroke-width="1.7339153367380915" stroke-linecap="butt" stroke-linejoin="miter" class=""/>
  <path d="M 242.199 223.826 L 311.354 194.319 C 311.354 194.319 315.22 195.151 312.72 197.986 C 310.218 200.82 243.534 226.66 243.534 226.66 L 118.333 196.985 L 242.199 223.826 Z" opacity="0.1" style="" stroke="none" stroke-width="2.394399021858131" stroke-linecap="butt" stroke-linejoin="miter" class=""/>
  <path d="M 234.809 198.279 C 234.809 198.279 228.297 208.085 234.966 220.088" opacity="0.1" style="" stroke="none" stroke-width="2.394399021858131" stroke-linecap="butt" stroke-linejoin="miter" class=""/>
  <rect x="203.376" y="220.451" width="31.532" height="0.334" transform="matrix(0.9486, -0.316477, 0.316477, 0.9486, -23.784356, 63.7437)" opacity="0.1" style="" stroke="none" stroke-width="2.394399021858131" stroke-linejoin="miter" fill="#000000" class=""/>
  <rect x="202.938" y="221.287" width="38.42" height="0.334" transform="matrix(0.934702, -0.355433, 0.355433, 0.934702, -29.435937, 76.477045)" opacity="0.1" style="" stroke="none" stroke-width="2.394399021858131" stroke-linejoin="miter" fill="#000000" class=""/>
  <rect x="202.72" y="222.868" width="44.531" height="0.334" transform="matrix(0.925474, -0.37881, 0.37881, 0.925474, -32.940232, 84.875979)" opacity="0.1" style="" stroke="none" stroke-width="2.394399021858131" stroke-linejoin="miter" fill="#000000" class=""/>
  <rect x="250.377" y="294.249" width="63.346" height="0.438" transform="matrix(0.911332, -0.411673, 0.411673, 0.911332, -109.729328, 52.047578)" opacity="0.1" style="" stroke="none" stroke-width="2.394399021858131" stroke-linejoin="miter" fill="#000000" class=""/>
  <rect x="202.89" y="224.209" width="56.065" height="0.334" transform="matrix(0.916293, -0.400509, 0.400509, 0.916293, -35.757848, 94.30527)" opacity="0.1" style="" stroke="none" stroke-width="2.394399021858131" stroke-linejoin="miter" fill="#000000" class=""/>
  <rect x="203.265" y="224.417" width="67.092" height="0.334" transform="matrix(0.918032, -0.396507, 0.396507, 0.918032, -34.860776, 95.342151)" opacity="0.1" style="" stroke="none" stroke-width="2.394399021858131" stroke-linejoin="miter" fill="#000000" class=""/>
  <g transform="matrix(0.126182, -0.301327, 0.301327, 0.126182, 49.64253, 247.927238)" style="" class="">
    <g transform="matrix(1 -5.55112e-17 5.55112e-17 1 -30.955 135.53)" class="">
      <path d="M 316.40631103515625 211.53602600097656 C 321.6657409667969 223.8809051513672 301.87774658203125 266.1219482421875 301.87774658203125 266.1219482421875 L 280.5936584472656 258.6889343261719 C 280.5936584472656 258.6889343261719 299.0448913574219 218.09262084960938 294.06317138671875 206.09902954101562 C 292.30224609375 201.86001586914062 271.2594909667969 175.82188415527344 271.2594909667969 175.82188415527344 L 288.3549499511719 185.62855529785156 L 295.5970153808594 181.38253784179688 C 295.5970153808594 181.38253784179688 313.66583251953125 205.103759765625 316.40631103515625 211.53602600097656 Z " style="fill: rgb(81, 98, 175);" transform="matrix(-0.873984 -0.485954 0.485954 -0.873984 504.163 737.115)" stroke="none" stroke-width="2.394399021858131" stroke-linecap="butt" stroke-linejoin="miter" class="" fill-opacity="1"/>
    </g>
  </g>
  <g transform="matrix(0.126182, -0.301327, 0.301327, 0.126182, 75.960398, 273.480446)" style="">
    <path d="M 280.6336669921875 366.6519470214844 L 256.6199645996094 360.4803771972656 L 241.7879180908203 341.5831604003906 L 258.9225769042969 351.3063659667969 L 266.2307434082031 347.0776672363281 L 280.6336669921875 366.6519470214844 Z " style="" transform="matrix(-0.873984 -0.485954 0.485954 -0.873984 407.972 898.747)" fill="rgb(255, 255, 255)" fill-opacity="0.16" stroke="none" stroke-width="2.394399021858131" stroke-linecap="butt" stroke-linejoin="miter" class=""/>
  </g>
  <rect x="-77.717" y="-254.953" width="19.662" height="0.379" transform="matrix(0.940624, -0.339449, -0.412927, -0.914108, 253.354454, -67.96168)" opacity="0.1" style="" stroke="none" stroke-width="2.394399021858131" stroke-linejoin="miter" fill="#000000" class=""/>
  <g fill="none" fill-rule="evenodd" transform="matrix(0.326677, 0.001411, -0.001411, 0.326677, 63.308207, -239.471229)" class="" style="">
    <path d="M 120.71875 230.9416046142578 L 94.9561767578125 238.68765258789062 L 58.63771057128906 238.4774932861328 L 40.39204406738281 243.7720947265625 L 63.64342498779297 248.10264587402344 L 38.23409652709961 255.7425537109375 L -43.0406608581543 239.93707275390625 L 0.7967669367790222 228.2734832763672 C 25.163488388061523 221.79029846191406 48.3484001159668 219.87591552734375 65.58231353759766 222.79705810546875 C 77.51810455322266 224.8201446533203 80.96681213378906 227.8900146484375 75.63545989990234 231.6535186767578 L 120.71875 230.9416046142578 Z M -1.0457369089126587 236.054443359375 L 23.354331970214844 240.59890747070312 L 41.284278869628906 235.52865600585938 C 51.008724212646484 232.7786407470703 52.24544906616211 230.44058227539062 44.21357345581055 229.02684020996094 C 36.48897933959961 227.6671600341797 26.772756576538086 228.471923828125 16.988021850585938 231.13897705078125 L -1.0457369089126587 236.054443359375 Z M 53.01390838623047 214.38031005859375 L 116.32626342773438 197.53509521484375 L 131.8422393798828 199.8330535888672 L 90.57230377197266 211.08206176757812 L 104.97186279296875 213.3751983642578 L 142.17742919921875 203.00607299804688 L 158.19813537597656 205.395263671875 L 121.3370132446289 215.98147583007812 L 136.42921447753906 218.38494873046875 L 178.02304077148438 206.21009826660156 L 194.7489471435547 208.6826629638672 L 132.23196411132812 227.4798583984375 L 53.01390838623047 214.38031005859375 Z " transform="matrix(1 0 0 1 548.522 1045.21)" fill="#FAFAFA" stroke-width="1" stroke-linecap="butt" stroke-linejoin="miter" class=""/>
    <path d="M 120.71875 230.9416046142578 L 94.9561767578125 238.68765258789062 L 58.63771057128906 238.4774932861328 L 40.39204406738281 243.7720947265625 L 63.64342498779297 248.10264587402344 L 38.23409652709961 255.7425537109375 L -43.0406608581543 239.93707275390625 L 0.7967669367790222 228.2734832763672 C 25.163488388061523 221.79029846191406 48.3484001159668 219.87591552734375 65.58231353759766 222.79705810546875 C 77.51810455322266 224.8201446533203 80.96681213378906 227.8900146484375 75.63545989990234 231.6535186767578 L 120.71875 230.9416046142578 Z M -1.0457369089126587 236.054443359375 L 23.354331970214844 240.59890747070312 L 41.284278869628906 235.52865600585938 C 51.008724212646484 232.7786407470703 52.24544906616211 230.44058227539062 44.21357345581055 229.02684020996094 C 36.48897933959961 227.6671600341797 26.772756576538086 228.471923828125 16.988021850585938 231.13897705078125 L -1.0457369089126587 236.054443359375 Z M 53.01390838623047 214.38031005859375 L 116.32626342773438 197.53509521484375 L 131.8422393798828 199.8330535888672 L 90.57230377197266 211.08206176757812 L 104.97186279296875 213.3751983642578 L 142.17742919921875 203.00607299804688 L 158.19813537597656 205.395263671875 L 121.3370132446289 215.98147583007812 L 136.42921447753906 218.38494873046875 L 178.02304077148438 206.21009826660156 L 194.7489471435547 208.6826629638672 L 132.23196411132812 227.4798583984375 L 53.01390838623047 214.38031005859375 Z " filter="url(#d)" stroke-linejoin="miter" class="" opacity="1" stroke-linecap="butt" transform="matrix(1 0 0 1 548.522 1045.21)" stroke-width="1" fill="#000"/>
  </g>
  <path d="M 89.854 86.201 L 80.984 86.201 L 74.094 76.251 L 73.694 76.251 L 66.504 76.251 L 66.504 86.201 L 58.234 86.201 L 58.234 50.501 L 73.694 50.501 C 76.854 50.501 79.597 51.028 81.924 52.081 C 84.257 53.134 86.051 54.631 87.304 56.571 C 88.564 58.511 89.194 60.804 89.194 63.451 C 89.194 66.104 88.557 68.391 87.284 70.311 C 86.011 72.231 84.201 73.701 81.854 74.721 L 89.854 86.201 Z M 80.834 63.451 C 80.834 61.444 80.187 59.908 78.894 58.841 C 77.601 57.768 75.714 57.231 73.234 57.231 L 66.504 57.231 L 66.504 69.681 L 73.234 69.681 C 75.714 69.681 77.601 69.134 78.894 68.041 C 80.187 66.954 80.834 65.424 80.834 63.451 ZM 106.929 79.571 L 126.369 79.571 L 126.369 86.201 L 98.719 86.201 L 98.719 50.501 L 125.699 50.501 L 125.699 57.131 L 106.929 57.131 L 106.929 64.881 L 123.509 64.881 L 123.509 71.311 L 106.929 71.311 L 106.929 79.571 ZM 162.62 86.201 L 159.45 78.551 L 142.88 78.551 L 139.72 86.201 L 131.25 86.201 L 147.16 50.501 L 155.32 50.501 L 171.29 86.201 L 162.62 86.201 Z M 145.53 72.281 L 156.85 72.281 L 151.19 58.611 L 145.53 72.281 ZM 189.736 86.811 C 186.916 86.811 184.189 86.428 181.556 85.661 C 178.923 84.901 176.806 83.908 175.206 82.681 L 178.006 76.461 C 179.539 77.581 181.359 78.481 183.466 79.161 C 185.573 79.841 187.679 80.181 189.786 80.181 C 192.133 80.181 193.869 79.834 194.996 79.141 C 196.116 78.441 196.676 77.514 196.676 76.361 C 196.676 75.508 196.343 74.801 195.676 74.241 C 195.016 73.681 194.166 73.231 193.126 72.891 C 192.093 72.551 190.693 72.178 188.926 71.771 C 186.206 71.124 183.979 70.478 182.246 69.831 C 180.513 69.184 179.023 68.148 177.776 66.721 C 176.536 65.294 175.916 63.391 175.916 61.011 C 175.916 58.931 176.479 57.051 177.606 55.371 C 178.726 53.691 180.416 52.358 182.676 51.371 C 184.936 50.384 187.699 49.891 190.966 49.891 C 193.239 49.891 195.466 50.161 197.646 50.701 C 199.819 51.248 201.723 52.031 203.356 53.051 L 200.806 59.321 C 197.506 57.454 194.209 56.521 190.916 56.521 C 188.603 56.521 186.893 56.894 185.786 57.641 C 184.679 58.388 184.126 59.374 184.126 60.601 C 184.126 61.821 184.766 62.731 186.046 63.331 C 187.319 63.924 189.266 64.511 191.886 65.091 C 194.606 65.731 196.833 66.374 198.566 67.021 C 200.299 67.668 201.786 68.688 203.026 70.081 C 204.266 71.474 204.886 73.361 204.886 75.741 C 204.886 77.781 204.316 79.644 203.176 81.331 C 202.036 83.011 200.329 84.344 198.056 85.331 C 195.776 86.318 193.003 86.811 189.736 86.811 ZM 230.834 86.811 C 227.127 86.811 223.787 86.011 220.814 84.411 C 217.841 82.818 215.511 80.618 213.824 77.811 C 212.144 75.004 211.304 71.851 211.304 68.351 C 211.304 64.851 212.144 61.698 213.824 58.891 C 215.511 56.084 217.841 53.884 220.814 52.291 C 223.787 50.691 227.127 49.891 230.834 49.891 C 234.541 49.891 237.874 50.691 240.834 52.291 C 243.794 53.884 246.124 56.084 247.824 58.891 C 249.517 61.698 250.364 64.851 250.364 68.351 C 250.364 71.851 249.517 75.004 247.824 77.811 C 246.124 80.618 243.794 82.818 240.834 84.411 C 237.874 86.011 234.541 86.811 230.834 86.811 Z M 230.834 79.771 C 232.941 79.771 234.844 79.288 236.544 78.321 C 238.244 77.354 239.581 76.004 240.554 74.271 C 241.521 72.531 242.004 70.558 242.004 68.351 C 242.004 66.138 241.521 64.164 240.554 62.431 C 239.581 60.698 238.244 59.348 236.544 58.381 C 234.844 57.414 232.941 56.931 230.834 56.931 C 228.727 56.931 226.824 57.414 225.124 58.381 C 223.424 59.348 222.091 60.698 221.124 62.431 C 220.151 64.164 219.664 66.138 219.664 68.351 C 219.664 70.558 220.151 72.531 221.124 74.271 C 222.091 76.004 223.424 77.354 225.124 78.321 C 226.824 79.288 228.727 79.771 230.834 79.771 ZM 284.178 50.501 L 292.338 50.501 L 292.338 86.201 L 285.548 86.201 L 267.748 64.521 L 267.748 86.201 L 259.588 86.201 L 259.588 50.501 L 266.428 50.501 L 284.178 72.171 L 284.178 50.501 Z" transform="matrix(1, 0, 0, 1, 37.33038330078125, 1.9063200950622559)" style="fill: rgb(66, 66, 73); white-space: pre;"/>
  <path d="M 55.894 86.201 L 55.894 73.601 L 61.204 73.601 C 62.537 73.601 63.721 73.864 64.754 74.391 C 65.781 74.918 66.581 75.658 67.154 76.611 C 67.721 77.571 68.004 78.668 68.004 79.901 C 68.004 81.134 67.721 82.228 67.154 83.181 C 66.581 84.141 65.781 84.884 64.754 85.411 C 63.721 85.938 62.537 86.201 61.204 86.201 L 55.894 86.201 Z M 57.694 84.631 L 61.094 84.631 C 62.114 84.631 63.011 84.434 63.784 84.041 C 64.557 83.648 65.154 83.091 65.574 82.371 C 65.994 81.658 66.204 80.834 66.204 79.901 C 66.204 78.968 65.994 78.141 65.574 77.421 C 65.154 76.708 64.557 76.154 63.784 75.761 C 63.011 75.368 62.114 75.171 61.094 75.171 L 57.694 75.171 L 57.694 84.631 ZM 82.152 86.341 C 80.879 86.341 79.732 86.064 78.712 85.511 C 77.692 84.951 76.892 84.178 76.312 83.191 C 75.725 82.211 75.432 81.114 75.432 79.901 C 75.432 78.688 75.725 77.591 76.312 76.611 C 76.892 75.624 77.692 74.851 78.712 74.291 C 79.732 73.738 80.879 73.461 82.152 73.461 C 83.412 73.461 84.552 73.738 85.572 74.291 C 86.592 74.851 87.389 75.621 87.962 76.601 C 88.542 77.574 88.832 78.674 88.832 79.901 C 88.832 81.128 88.542 82.228 87.962 83.201 C 87.389 84.181 86.592 84.951 85.572 85.511 C 84.552 86.064 83.412 86.341 82.152 86.341 Z M 82.152 84.741 C 83.072 84.741 83.902 84.531 84.642 84.111 C 85.382 83.691 85.965 83.111 86.392 82.371 C 86.819 81.638 87.032 80.814 87.032 79.901 C 87.032 78.988 86.819 78.161 86.392 77.421 C 85.965 76.688 85.382 76.111 84.642 75.691 C 83.902 75.271 83.072 75.061 82.152 75.061 C 81.225 75.061 80.389 75.271 79.642 75.691 C 78.889 76.111 78.299 76.688 77.872 77.421 C 77.445 78.161 77.232 78.988 77.232 79.901 C 77.232 80.814 77.445 81.638 77.872 82.371 C 78.299 83.111 78.889 83.691 79.642 84.111 C 80.389 84.531 81.225 84.741 82.152 84.741 ZM 102.912 86.341 C 101.652 86.341 100.515 86.064 99.502 85.511 C 98.489 84.951 97.695 84.181 97.122 83.201 C 96.542 82.228 96.252 81.128 96.252 79.901 C 96.252 78.674 96.542 77.574 97.122 76.601 C 97.695 75.621 98.492 74.851 99.512 74.291 C 100.532 73.738 101.672 73.461 102.932 73.461 C 103.919 73.461 104.819 73.624 105.632 73.951 C 106.452 74.284 107.149 74.774 107.722 75.421 L 106.552 76.551 C 105.605 75.558 104.422 75.061 103.002 75.061 C 102.069 75.061 101.225 75.271 100.472 75.691 C 99.712 76.111 99.119 76.688 98.692 77.421 C 98.265 78.161 98.052 78.988 98.052 79.901 C 98.052 80.814 98.265 81.638 98.692 82.371 C 99.119 83.111 99.712 83.691 100.472 84.111 C 101.225 84.531 102.069 84.741 103.002 84.741 C 104.409 84.741 105.592 84.238 106.552 83.231 L 107.722 84.361 C 107.149 85.014 106.449 85.508 105.622 85.841 C 104.802 86.174 103.899 86.341 102.912 86.341 ZM 121.162 86.341 C 119.482 86.341 118.175 85.861 117.242 84.901 C 116.302 83.941 115.832 82.561 115.832 80.761 L 115.832 73.601 L 117.632 73.601 L 117.632 80.691 C 117.632 83.391 118.815 84.741 121.182 84.741 C 122.335 84.741 123.215 84.408 123.822 83.741 C 124.435 83.074 124.742 82.058 124.742 80.691 L 124.742 73.601 L 126.492 73.601 L 126.492 80.761 C 126.492 82.574 126.022 83.958 125.082 84.911 C 124.149 85.864 122.842 86.341 121.162 86.341 ZM 149.29 86.201 L 147.56 86.201 L 147.54 77.021 L 142.99 84.671 L 142.16 84.671 L 137.61 77.071 L 137.61 86.201 L 135.88 86.201 L 135.88 73.601 L 137.36 73.601 L 142.61 82.461 L 147.8 73.601 L 149.27 73.601 L 149.29 86.201 ZM 160.57 84.631 L 167.91 84.631 L 167.91 86.201 L 158.77 86.201 L 158.77 73.601 L 167.66 73.601 L 167.66 75.171 L 160.57 75.171 L 160.57 79.041 L 166.89 79.041 L 166.89 80.571 L 160.57 80.571 L 160.57 84.631 ZM 185.57 73.601 L 187.37 73.601 L 187.37 86.201 L 185.89 86.201 L 178.33 76.801 L 178.33 86.201 L 176.53 86.201 L 176.53 73.601 L 178.01 73.601 L 185.57 83.001 L 185.57 73.601 ZM 199.346 86.201 L 199.346 75.171 L 195.026 75.171 L 195.026 73.601 L 205.446 73.601 L 205.446 75.171 L 201.126 75.171 L 201.126 86.201 L 199.346 86.201 ZM 221.892 86.201 L 220.512 83.051 L 213.812 83.051 L 212.432 86.201 L 210.572 86.201 L 216.282 73.601 L 218.062 73.601 L 223.782 86.201 L 221.892 86.201 Z M 214.442 81.611 L 219.882 81.611 L 217.162 75.441 L 214.442 81.611 ZM 233.228 86.201 L 233.228 75.171 L 228.908 75.171 L 228.908 73.601 L 239.328 73.601 L 239.328 75.171 L 235.008 75.171 L 235.008 86.201 L 233.228 86.201 ZM 246.994 86.201 L 246.994 73.601 L 248.794 73.601 L 248.794 86.201 L 246.994 86.201 ZM 263.964 86.341 C 262.691 86.341 261.544 86.064 260.524 85.511 C 259.504 84.951 258.704 84.178 258.124 83.191 C 257.537 82.211 257.244 81.114 257.244 79.901 C 257.244 78.688 257.537 77.591 258.124 76.611 C 258.704 75.624 259.504 74.851 260.524 74.291 C 261.544 73.738 262.691 73.461 263.964 73.461 C 265.224 73.461 266.364 73.738 267.384 74.291 C 268.404 74.851 269.201 75.621 269.774 76.601 C 270.354 77.574 270.644 78.674 270.644 79.901 C 270.644 81.128 270.354 82.228 269.774 83.201 C 269.201 84.181 268.404 84.951 267.384 85.511 C 266.364 86.064 265.224 86.341 263.964 86.341 Z M 263.964 84.741 C 264.884 84.741 265.714 84.531 266.454 84.111 C 267.194 83.691 267.777 83.111 268.204 82.371 C 268.631 81.638 268.844 80.814 268.844 79.901 C 268.844 78.988 268.631 78.161 268.204 77.421 C 267.777 76.688 267.194 76.111 266.454 75.691 C 265.714 75.271 264.884 75.061 263.964 75.061 C 263.037 75.061 262.201 75.271 261.454 75.691 C 260.701 76.111 260.111 76.688 259.684 77.421 C 259.257 78.161 259.044 78.988 259.044 79.901 C 259.044 80.814 259.257 81.638 259.684 82.371 C 260.111 83.111 260.701 83.691 261.454 84.111 C 262.201 84.531 263.037 84.741 263.964 84.741 ZM 288.134 73.601 L 289.934 73.601 L 289.934 86.201 L 288.454 86.201 L 280.894 76.801 L 280.894 86.201 L 279.094 86.201 L 279.094 73.601 L 280.574 73.601 L 288.134 83.001 L 288.134 73.601 Z" transform="matrix(1, 0, 0, 1, 39.979251861572266, 214.5924072265625)" style="fill: rgb(123, 122, 128); white-space: pre;"/>
</svg>